<svg xmlns="http://www.w3.org/2000/svg" width="256" height="256" viewBox="0 0 100 100"><rect width="100" height="100" rx="20" fill="#6d5af3"></rect><path d="M12.65 82.44L8.78 78.03L9.41 34.92L5.54 34.92L5.54 32.22L9.41 30.15L10.94 18.54L15.26 18.54L15.26 30.06L24.08 30.06L24.08 35.46L15.08 35.46L15.08 75.96L20.21 77.58L21.11 70.11L24.26 70.11L24.26 82.44L12.65 82.44ZM34.25 82.44Q31.73 82.44 30.02 81.23Q28.31 80.01 28.31 78.21L28.31 78.21L28.40 56.25Q28.31 54.36 29.43 53.24Q30.56 52.11 32.36 52.11L32.36 52.11L39.92 52.65L40.19 35.73L39.11 35.19L29.39 34.56L29.39 30.06L41.27 30.06Q43.79 30.06 44.87 31.37Q45.95 32.67 45.95 35.91L45.95 35.91L45.68 77.13L47.30 78.03L47.30 82.44L34.25 82.44ZM39.47 77.22L39.92 76.50L39.74 57.60L34.70 57.60L34.25 58.14L33.89 76.50Q33.89 76.77 34.02 76.86Q34.16 76.95 34.70 77.04L34.70 77.04L39.47 77.22ZM59.45 82.44Q57.02 82.44 55.80 81.95Q54.59 81.45 54.23 80.42Q53.87 79.38 53.87 77.40L53.87 77.40L53.87 17.55L59.18 17.55L59.63 30.15Q62.69 29.79 65.57 29.79L65.57 29.79Q68.09 29.79 69.80 31.05Q71.51 32.31 71.51 34.11L71.51 34.11L71.15 77.40Q71.15 79.74 70.11 81.09Q69.08 82.44 66.92 82.44L66.92 82.44L59.45 82.44ZM60.71 77.85L65.12 77.58Q65.66 77.49 65.79 77.40Q65.93 77.31 65.93 77.04L65.93 77.04L65.39 35.82L64.58 35.01L59.36 35.55L59.90 77.31L60.71 77.85ZM79.16 82.44L79.16 76.68L89.24 76.68L87.44 57.69L79.16 55.44L79.16 33.57Q79.16 32.31 80.10 31.19Q81.05 30.06 82.13 30.06L82.13 30.06L94.46 30.06L94.46 34.47L84.11 35.91L85.28 50.94L94.46 53.37L94.46 78.03Q94.46 79.56 92.88 81.00Q91.31 82.44 89.69 82.44L89.69 82.44L79.16 82.44Z" fill="#fff"></path></svg>